Coordinates
version=1
nRows=29
nColumns=24
inDegrees=yes

Units are S.I. units (second, meters, Newtons, ...)
Angles are in degrees.

endheader
time	pelvis_tilt	pelvis_list	pelvis_rotation	pelvis_tx	pelvis_ty	pelvis_tz	hip_flexion_r	hip_adduction_r	hip_rotation_r	knee_angle_r	ankle_angle_r	subtalar_angle_r	mtp_angle_r	hip_flexion_l	hip_adduction_l	hip_rotation_l	knee_angle_l	ankle_angle_l	subtalar_angle_l	mtp_angle_l	lumbar_extension	lumbar_bending	lumbar_rotation
      0.66200000	     -1.12141310	     10.31997969	      2.52769425	     -0.01899404	      0.96037035	      0.26606522	     28.96614297	    -11.38452109	     -0.92755975	      1.40938654	      5.85386715	     -4.00325448	      0.10568098	    -25.05887514	     13.02174858	     12.36085810	      2.44264824	      9.61318719	     -7.47261295	      0.33994067	    -11.56406731	     -1.95812981	    -12.89068655
      0.66616667	     -1.26926219	     10.20421479	      2.56531324	     -0.01313239	      0.95959281	      0.26647267	     29.15616542	    -11.21651854	     -0.40389502	      0.82290040	      5.64167019	     -4.52192135	      0.12728449	    -25.05760169	     12.87139565	     12.25258701	      2.07149516	      9.57566332	     -7.32285260	      0.37660272	    -11.38366314	     -1.80155619	    -12.84523537
      0.67033333	     -1.37185494	     10.05985801	      2.58861551	     -0.00720299	      0.95890773	      0.26688968	     29.28666497	    -11.01453655	      0.07713393	      0.22442576	      5.37508553	     -5.01663901	      0.15287291	    -25.08376648	     12.69730748	     12.05975304	      1.66180678	      9.57724852	     -7.07598732	      0.44996445	    -11.23422845	     -1.59257211	    -12.79901744
      0.67450000	     -1.48331036	      9.89875068	      2.61225234	     -0.00123575	      0.95824499	      0.26732889	     29.43470173	    -10.79175451	      0.53022960	     -0.42191414	      5.06921584	     -5.47573011	      0.18420243	    -25.08160501	     12.50903593	     11.84749177	      1.21811956	      9.57671840	     -6.82054018	      0.56226953	    -11.08263370	     -1.37114835	    -12.74471171
      0.67866667	     -1.60557692	      9.72108648	      2.63041470	      0.00478187	      0.95759098	      0.26778100	     29.60034800	    -10.54701779	      0.95797611	     -1.10118361	      4.71454614	     -5.91485645	      0.21776922	    -25.06344585	     12.30844196	     11.63784163	      0.76909541	      9.54132716	     -6.59260844	      0.69964534	    -10.91682808	     -1.12913304	    -12.69083249
      0.68283333	     -1.72419552	      9.53080725	      2.64617822	      0.01084621	      0.95697517	      0.26825398	     29.76281608	    -10.28541305	      1.35767340	     -1.80079217	      4.30743311	     -6.34631596	      0.25769321	    -25.03538549	     12.09683549	     11.41399242	      0.29509884	      9.49157142	     -6.37494783	      0.87227806	    -10.74793251	     -0.87001089	    -12.62802685
      0.68700000	     -1.83713592	      9.32349671	      2.66011062	      0.01694587	      0.95640230	      0.26874001	     29.91681759	    -10.00422527	      1.73358484	     -2.50976395	      3.84200564	     -6.79816748	      0.31835011	    -24.98513327	     11.87224807	     11.14662985	     -0.23372423	      9.44705071	     -6.14316421	      1.13548821	    -10.59029845	     -0.59026956	    -12.56226574
      0.69116667	     -1.97402618	      9.10887532	      2.66678652	      0.02311060	      0.95581369	      0.26924104	     30.11731371	     -9.71011308	      2.06020378	     -3.27016113	      3.33972517	     -7.18332794	      0.37209380	    -24.92820322	     11.64193584	     10.93797044	     -0.71812396	      9.32624155	     -5.97139650	      1.37670109	    -10.38417368	     -0.30989204	    -12.49551540
      0.69533333	     -2.10621518	      8.87795137	      2.67220954	      0.02929699	      0.95527224	      0.26977781	     30.30597584	     -9.39554884	      2.37906594	     -4.02290730	      2.79030080	     -7.59884403	      0.44243933	    -24.84461677	     11.39723484	     10.68684807	     -1.26181153	      9.20223783	     -5.78468653	      1.68982702	    -10.20573540	     -0.00771271	    -12.42346860
      0.69950000	     -2.21950731	      8.64155647	      2.66851842	      0.03554313	      0.95476739	      0.27028583	     30.50713361	     -9.08018190	      2.56708376	     -4.84665867	      2.25258318	     -7.79619326	      1.30677354	    -24.73854997	     11.15253395	     10.26424768	     -1.88617768	      9.09361670	     -5.41265280	      5.11191153	    -10.01945279	      0.30997627	    -12.33283642
      0.70366667	     -2.34058809	      8.39211632	      2.66483947	      0.04182547	      0.95429584	      0.27083400	     30.69580981	     -8.74313044	      2.83444603	     -5.63846857	      1.64445328	     -8.26866259	      1.32041760	    -24.68349875	     10.89275005	     10.13922776	     -2.38590568	      8.79603583	     -5.50056097	      5.20229068	     -9.82602048	      0.64579743	    -12.28383853
      0.70783333	     -2.46771664	      8.14329607	      2.65669312	      0.04814015	      0.95383913	      0.27138872	     30.91109508	     -8.40743414	      3.03266688	     -6.47086106	      1.03885282	     -8.62435291	      1.34793679	    -24.57972103	     10.63830550	      9.90704630	     -2.97137834	      8.55945426	     -5.41805350	      5.35569732	     -9.62238825	      0.97680944	    -12.20724253
      0.71200000	     -2.57330613	      7.87160023	      2.63287415	      0.05451839	      0.95343268	      0.27194470	     31.11697005	     -8.04894683	      3.15818563	     -7.33821674	      0.50384556	     -8.80156303	      1.36298460	    -24.49862762	     10.36633662	      9.67548136	     -3.54798366	      8.23699179	     -5.40865015	      5.45154402	     -9.44529983	      1.35475931	    -12.14067039
      0.71616667	     -2.71736505	      7.63242256	      2.62871918	      0.06087035	      0.95301049	      0.27254238	     31.36748466	     -7.72093123	      3.33367268	     -8.21339311	     -0.13809016	     -9.25522514	      1.41097834	    -24.33020209	     10.11928354	      9.40920183	     -4.22342807	      8.01487638	     -5.22164459	      5.73460875	     -9.22208574	      1.65466412	    -12.05710262
      0.72033333	     -2.78960522	      7.35375000	      2.59223015	      0.06731433	      0.95270264	      0.27311297	     31.55740177	     -7.35574300	      3.38347167	     -9.13359315	     -0.61060517	     -9.37554232	      1.43003582	    -24.25698144	      9.84348149	      9.16245701	     -4.84373892	      7.60600224	     -5.23825843	      5.85757117	     -9.08090386	      2.04608043	    -11.99792373
      0.72450000	     -2.91047686	      7.10340788	      2.56614631	      0.07373673	      0.95233967	      0.27374881	     31.82193281	     -7.01294346	      3.46577303	    -10.10299633	     -1.09789339	     -9.66596352	      2.34116377	    -24.06290310	      9.58471502	      8.75806453	     -5.59393480	      7.25302200	     -4.95288737	     10.92904244	     -8.89411245	      2.35667525	    -11.90287059
      0.72866667	     -2.97943086	      6.82491052	      2.52919394	      0.08022890	      0.95210283	      0.27433919	     32.00997613	     -6.64975963	      3.49096974	    -11.04094773	     -1.54971595	     -9.83779876	      2.33838658	    -23.96766841	      9.30957505	      8.56080186	     -6.25574341	      6.76598758	     -5.04117074	     10.95222623	     -8.74593411	      2.75047079	    -11.85046783
      0.73283333	     -3.07215390	      6.56085261	      2.48767800	      0.08672912	      0.95185124	      0.27496964	     32.24017631	     -6.29364751	      3.53049186	    -12.02171737	     -1.93507560	    -10.06024060	      2.33871241	    -23.81927760	      9.04967505	      8.33886811	     -6.96786193	      6.27415780	     -5.06374495	     11.01462256	     -8.58146582	      3.10223229	    -11.79142121
      0.73700000	     -3.14497816	      6.30125299	      2.44450838	      0.09324506	      0.95165185	      0.27559901	     32.45301304	     -5.94460670	      3.54841359	    -13.02153015	     -2.25189675	    -10.25907518	      2.34034275	    -23.66599521	      8.79293926	      8.09592801	     -7.72689123	      5.76266111	     -5.05564996	     11.10797510	     -8.42508255	      3.46121928	    -11.73016743
      0.74116667	     -3.20384182	      6.04076679	      2.39409392	      0.09977767	      0.95150084	      0.27625393	     32.65373085	     -5.59114328	      3.55555758	    -14.03767444	     -2.49544460	    -10.44372268	      2.34253991	    -23.50850940	      8.53511231	      7.84561266	     -8.51478256	      5.21446573	     -5.03711083	     11.22727238	     -8.29214341	      3.81070103	    -11.67373522
      0.74533333	     -3.27189196	      5.76042193	      2.35511602	      0.10631834	      0.95138196	      0.27693643	     32.84610711	     -5.22110511	      3.55151625	    -15.02609943	     -2.77155205	    -10.70947459	      2.44490043	    -23.29073035	      8.24029815	      7.48364323	     -9.38141003	      4.61863269	     -4.85005989	     16.43203186	     -8.16238079	      4.16463350	    -11.57356806
      0.74950000	     -3.28604085	      5.50263866	      2.27708229	      0.11287503	      0.95132870	      0.27762820	     33.00634393	     -4.85778760	      3.56223967	    -16.07823502	     -2.80148459	    -10.83710756	      2.44383220	    -23.14924244	      7.99213917	      7.24050408	    -10.21326567	      3.96751911	     -4.90738845	     16.45237571	     -8.08036282	      4.53043323	    -11.54986095
      0.75366667	     -3.31341571	      5.24482514	      2.20966966	      0.11943894	      0.95130505	      0.27832115	     33.16858960	     -4.49974110	      3.55789672	    -17.11642753	     -2.80883335	    -10.96247029	      2.43955405	    -22.96506782	      7.73790789	      6.99695426	    -11.09155106	      3.27204166	     -4.91485197	     16.50642236	     -7.98259893	      4.88321936	    -11.51092653
      0.75783333	     -3.33087798	      4.98659815	      2.14050530	      0.12599996	      0.95132877	      0.27903371	     33.31150415	     -4.13792427	      3.56103685	    -18.14756156	     -2.74640503	    -11.09393501	      2.43152303	    -22.76397912	      7.48022392	      6.74140034	    -12.01311570	      2.54595957	     -4.89891822	     16.59313391	     -7.89471415	      5.23328310	    -11.47260946
      0.76200000	     -3.35149638	      4.70625941	      2.08075239	      0.13256115	      0.95139171	      0.27979477	     33.43117577	     -3.75276873	      3.56224668	    -19.13456013	     -2.69142705	    -11.27191231	      1.87697217	    -22.50928302	      7.17790805	      6.37682412	    -13.01176078	      1.79043961	     -4.70039348	     20.93103726	     -7.80046808	      5.58185249	    -11.43431075
      0.76616667	     -3.32687126	      4.45263745	      1.99139934	      0.13910667	      0.95151869	      0.28054661	     33.51636071	     -3.38106161	      3.58630227	    -20.15811395	     -2.44002882	    -11.39137199	      1.87595130	    -22.31037255	      6.92744457	      6.12919702	    -13.99183845	      0.96673547	     -4.75376535	     20.95055214	     -7.77189816	      5.93940723	    -11.40262396
      0.77033333	     -3.30674011	      4.19817700	      1.90955500	      0.14564654	      0.95168425	      0.28131070	     33.58693230	     -3.01003124	      3.60619478	    -21.15030521	     -2.16547125	    -11.49859496	      1.86873497	    -22.07881490	      6.66834305	      5.87882669	    -15.01253539	      0.10129423	     -4.74470336	     20.99978182	     -7.73241459	      6.27908447	    -11.37224665
      0.77450000	     -3.28193523	      3.94340483	      1.82471661	      0.15216415	      0.95188223	      0.28209774	     33.63900139	     -2.63363292	      3.63582594	    -22.12097767	     -1.83302306	    -11.59783174	      1.85356839	    -21.82079025	      6.40421817	      5.61152393	    -16.08121040	     -0.78514056	     -4.69749639	     21.08471051	     -7.70499594	      6.61186290	    -11.34852379
      0.77866667	     -3.28179383	      3.70648300	      1.77693594	      0.15862499	      0.95206127	      0.28286496	     33.71383081	     -2.29635664	      3.61222148	    -23.09817468	     -1.37706297	    -11.58663814	      1.70549222	    -21.46917454	      6.13201146	      5.30262658	    -17.27728641	     -1.58114948	     -4.44512637	     21.70984449	     -7.64233722	      6.91055919	    -11.35521400
